<?xml version="1.0" standalone="no"?>
<!DOCTYPE svg PUBLIC "-//W3C//DTD SVG 20010904//EN"
 "http://www.w3.org/TR/2001/REC-SVG-20010904/DTD/svg10.dtd">
<svg version="1.0" xmlns="http://www.w3.org/2000/svg"
 width="300.000000pt" height="101.000000pt" viewBox="0 0 300.000000 101.000000"
 preserveAspectRatio="xMidYMid meet">
<metadata>
Created by potrace 1.10, written by Peter Selinger 2001-2011
</metadata>
<g transform="translate(0.000000,101.000000) scale(0.100000,-0.100000)"
fill="#000000" stroke="none">
<path d="M771 900 c-13 -11 -32 -20 -43 -20 -17 0 -19 -4 -14 -26 6 -23 0 -34
-47 -78 -41 -39 -56 -61 -61 -91 -4 -22 -10 -51 -13 -65 -6 -23 -4 -22 45 14
29 21 52 33 52 27 0 -6 -25 -29 -55 -51 -61 -45 -85 -83 -85 -133 0 -40 -21
-65 -38 -44 -6 7 -16 34 -22 60 -7 26 -16 49 -20 52 -4 3 -13 -16 -19 -41 -24
-94 -68 -152 -158 -208 -76 -46 -48 -46 60 1 63 28 91 63 105 129 l8 39 15
-45 c10 -32 20 -46 34 -48 27 -3 135 99 135 127 0 26 -4 26 -46 0 -57 -35 -39
1 28 55 70 58 98 98 98 144 0 36 -9 39 -45 16 -13 -9 -29 -14 -35 -12 -6 2 15
23 47 46 64 46 98 90 108 140 8 37 0 40 -34 12z"/>
<path d="M2420 896 c0 -15 -3 -16 -15 -6 -12 10 -15 10 -15 -4 0 -19 -16 -22
-23 -3 -3 8 -7 6 -12 -6 -11 -25 7 -39 39 -31 32 8 53 41 37 57 -8 8 -11 6
-11 -7z"/>
<path d="M1586 860 c-10 -10 -28 -20 -40 -22 -16 -2 -21 -10 -21 -33 0 -23
-12 -42 -51 -80 -43 -41 -54 -59 -63 -104 -6 -30 -9 -56 -7 -59 3 -2 22 10 43
27 38 32 53 38 53 22 0 -5 -23 -24 -51 -42 -63 -40 -82 -69 -89 -133 -4 -43
-8 -51 -25 -51 -16 0 -23 11 -34 58 -7 31 -17 57 -22 57 -4 0 -13 -19 -20 -42
-6 -24 -19 -59 -29 -78 -21 -41 -93 -111 -140 -135 -17 -9 -29 -19 -27 -22 8
-7 96 23 135 47 35 21 71 86 72 130 1 21 4 19 16 -14 15 -42 31 -66 44 -66 5
0 33 22 63 50 37 34 56 59 59 80 5 36 4 36 -29 10 -14 -11 -30 -20 -34 -20
-22 0 -4 24 51 66 70 55 87 79 96 133 5 34 4 41 -10 41 -9 0 -28 -7 -42 -16
-13 -9 -27 -14 -30 -11 -3 3 26 30 64 61 67 54 83 77 96 139 7 31 -1 34 -28 7z"/>
<path d="M575 854 c-15 -16 -15 -18 3 -37 14 -13 26 -17 39 -12 12 5 14 9 6
12 -7 3 -13 16 -13 29 0 28 -12 31 -35 8z"/>
<path d="M872 838 c-23 -23 -14 -40 18 -33 37 8 41 -11 5 -25 -37 -14 -32 -31
5 -19 33 12 83 66 74 80 -8 13 -88 11 -102 -3z"/>
<path d="M1402 838 c-16 -16 -15 -35 1 -42 12 -5 -4 -23 -61 -65 -15 -11 -22
-21 -15 -21 6 0 32 16 57 35 26 19 51 35 57 35 6 0 8 7 5 16 -3 9 -6 24 -6 35
0 21 -20 25 -38 7z"/>
<path d="M2490 820 c0 -19 -3 -52 -6 -72 -4 -24 -3 -38 4 -38 6 0 12 15 14 33
l3 32 19 -39 c21 -44 14 -69 -22 -74 -25 -4 -58 44 -68 98 -4 19 -10 42 -15
50 -10 18 -10 -53 0 -90 6 -20 -1 -32 -41 -70 -28 -27 -48 -55 -48 -67 0 -13
-8 -24 -21 -28 -23 -8 -58 -76 -59 -115 0 -15 -14 -38 -35 -59 -36 -35 -50
-65 -43 -98 2 -12 -9 -27 -34 -45 -62 -46 -83 -103 -52 -146 34 -49 190 -19
311 59 35 23 63 46 63 51 0 6 -15 0 -32 -12 -102 -67 -267 -118 -306 -94 -41
26 -22 65 54 109 54 32 84 70 84 106 0 32 -11 37 -30 14 -14 -17 -40 -20 -40
-6 0 18 67 61 95 61 31 0 114 57 139 96 11 15 16 40 14 62 -3 39 -13 43 -68
26 -21 -6 -19 -1 20 44 l44 51 22 -25 c13 -13 30 -24 39 -24 19 0 19 -4 -5
-73 -42 -120 -36 -194 21 -242 39 -32 95 -34 134 -3 85 67 84 245 -1 305 -57
39 -57 39 -50 -3 9 -51 56 -196 67 -208 15 -16 11 8 -16 91 l-24 78 34 -37
c26 -28 35 -47 35 -73 0 -72 -49 -125 -115 -125 -59 0 -102 62 -90 130 9 51
46 169 61 199 8 14 14 36 14 48 0 29 -37 124 -56 143 -12 12 -14 10 -14 -20z
m-105 -336 c-36 -29 -45 -30 -38 -4 5 18 52 43 63 33 3 -3 -8 -16 -25 -29z
m-55 2 c0 -17 -45 -58 -53 -49 -13 12 -7 33 13 53 21 21 40 19 40 -4z"/>
<path d="M2269 833 c-1 -5 -1 -11 0 -15 2 -13 -17 -9 -22 5 -3 7 -6 5 -6 -5
-1 -19 -21 -26 -21 -8 0 6 -4 10 -10 10 -13 0 -13 -37 0 -45 20 -12 70 18 70
42 0 21 -8 33 -11 16z"/>
<path d="M2012 810 c-6 -14 -11 -19 -11 -12 -1 19 -21 14 -22 -5 0 -11 -3 -13
-6 -5 -8 20 -23 14 -23 -9 0 -19 4 -21 32 -15 41 8 51 18 46 47 l-5 24 -11
-25z"/>
<path d="M1758 764 c-50 -39 -70 -64 -53 -64 13 0 115 87 115 98 0 16 2 18
-62 -34z"/>
<path d="M535 765 c-22 -19 -36 -34 -32 -35 12 0 87 53 87 63 0 14 -15 6 -55
-28z"/>
<path d="M1117 777 c-19 -14 -42 -22 -72 -22 -35 0 -50 -6 -74 -29 -17 -17
-31 -36 -31 -45 0 -11 6 -9 23 7 18 17 36 22 76 22 49 0 56 3 87 37 50 54 44
72 -9 30z"/>
<path d="M1263 747 c-83 -56 -81 -78 2 -26 36 23 65 47 65 55 0 17 6 20 -67
-29z"/>
<path d="M2125 758 c-78 -56 -96 -70 -91 -75 7 -7 136 77 136 88 0 14 -12 10
-45 -13z"/>
<path d="M407 715 c-37 -25 -65 -50 -62 -55 5 -8 91 42 134 76 1 1 1 8 0 13
-2 6 -35 -9 -72 -34z"/>
<path d="M1975 736 c-7 -16 4 -85 20 -128 5 -13 -1 -18 -32 -24 -63 -11 -91
-31 -118 -84 -30 -59 -32 -119 -6 -176 21 -45 64 -84 93 -84 59 0 116 75 125
165 5 52 7 55 33 55 15 0 33 7 40 15 14 17 60 21 60 5 0 -19 79 71 99 114 26
53 29 136 5 136 -29 0 -82 -63 -89 -106 -10 -65 -20 -89 -38 -92 -13 -3 -17 4
-18 25 l-1 28 -14 -32 c-21 -49 -52 -53 -86 -12 l-28 34 40 33 c39 32 77 89
67 98 -3 3 -14 -10 -25 -28 -23 -37 -69 -84 -76 -77 -3 2 -13 38 -24 79 -14
56 -21 70 -27 56z m315 -71 c0 -33 -62 -116 -76 -102 -12 12 9 68 33 87 25 19
43 26 43 15z m-265 -170 c11 -47 15 -88 10 -111 -25 -134 -195 -95 -195 44 0
58 34 102 95 123 28 10 55 18 61 18 6 1 19 -33 29 -74z"/>
<path d="M1908 459 c-10 -5 -18 -19 -18 -29 0 -17 4 -18 25 -10 33 12 41 -4
10 -20 -35 -19 -31 -31 5 -19 33 12 83 66 74 80 -7 12 -75 11 -96 -2z"/>
<path d="M814 629 l-9 -71 -44 -17 c-62 -23 -86 -59 -86 -129 1 -67 24 -114
72 -143 59 -37 120 -2 159 90 16 36 21 161 9 181 -4 6 19 38 49 72 31 34 56
65 56 70 0 19 -18 5 -58 -47 -24 -30 -47 -55 -51 -55 -4 0 -16 18 -26 39 -10
22 -28 49 -40 61 l-22 21 -9 -72z m56 -54 c0 -7 -9 -15 -20 -18 -17 -4 -20 0
-20 30 0 35 0 36 20 18 11 -10 20 -24 20 -30z m24 -57 c13 -49 6 -113 -16
-148 l-22 -35 -8 60 c-4 33 -10 77 -13 97 -4 29 -2 37 12 41 34 9 41 7 47 -15z
m-84 5 c0 -5 7 -50 15 -101 9 -51 13 -98 10 -103 -4 -5 -21 -9 -38 -9 -78 0
-134 97 -91 159 27 38 104 78 104 54z"/>
<path d="M1605 669 c-3 -9 3 -57 15 -107 25 -108 25 -111 -66 -197 -88 -84
-100 -145 -28 -145 67 0 163 66 224 155 49 71 34 73 -32 5 -64 -64 -142 -110
-188 -110 -22 0 -18 7 41 63 43 40 71 75 79 99 11 37 12 37 36 22 29 -19 68
-8 104 31 12 13 28 21 36 18 9 -3 14 2 14 17 0 12 14 40 32 62 17 22 32 54 34
71 l2 32 -39 -44 c-22 -24 -41 -42 -42 -40 -2 2 -7 18 -13 34 -8 26 -15 30
-51 33 -33 2 -44 -1 -57 -20 -9 -12 -16 -35 -16 -50 0 -30 31 -68 55 -68 24 0
17 -20 -11 -30 -50 -19 -76 11 -105 120 -11 42 -19 59 -24 49z m179 -55 c27
-10 19 -34 -11 -34 -35 0 -58 14 -49 29 8 12 35 14 60 5z"/>
<path d="M1123 639 c-24 -17 -43 -35 -43 -40 0 -6 6 -7 13 -3 59 36 87 56 87
64 0 16 -12 11 -57 -21z"/>
<path d="M492 630 c-6 -14 -11 -19 -11 -11 -1 11 -5 10 -16 -5 -8 -11 -15 -14
-15 -6 0 21 -20 13 -20 -9 0 -19 4 -21 32 -15 41 8 51 18 46 47 l-5 24 -11
-25z"/>
<path d="M1300 636 c0 -15 -3 -16 -15 -6 -12 10 -15 10 -15 -4 0 -19 -20 -22
-20 -3 0 6 -5 4 -11 -6 -17 -29 3 -43 40 -28 33 14 47 39 31 55 -7 7 -10 4
-10 -8z"/>
<path d="M995 578 c-25 -92 -30 -166 -13 -208 15 -34 14 -36 -11 -55 -14 -11
-51 -33 -81 -48 l-55 -28 45 6 c25 3 69 17 97 30 30 13 55 20 58 14 14 -21 58
-8 95 29 61 61 79 161 36 201 -38 36 -60 25 -64 -32 -4 -55 16 -71 48 -42 26
23 26 5 0 -45 -21 -42 -54 -70 -82 -70 -15 0 -16 4 -7 28 20 51 15 171 -11
230 -12 28 -26 52 -30 52 -4 0 -15 -28 -25 -62z m41 -35 c20 -49 23 -119 5
-162 l-15 -34 -18 23 c-21 26 -23 85 -6 159 6 28 13 51 15 51 1 0 10 -17 19
-37z"/>
<path d="M1500 510 c0 -5 6 -10 13 -10 20 0 44 -30 55 -70 l10 -35 1 33 c1 24
-7 42 -28 63 -30 29 -51 37 -51 19z"/>
<path d="M2106 373 c-27 -39 -34 -87 -14 -99 11 -7 38 21 38 40 0 6 -4 5 -9
-3 -12 -18 -32 -5 -24 17 3 9 15 30 26 45 10 16 17 30 14 33 -3 3 -17 -12 -31
-33z"/>
<path d="M2355 338 c23 -27 26 -39 23 -85 -3 -60 8 -71 18 -18 10 57 -20 135
-53 135 -11 0 -7 -9 12 -32z"/>
<path d="M528 313 c-33 -22 -49 -43 -33 -43 11 0 85 53 85 61 0 14 -12 10 -52
-18z"/>
<path d="M550 285 c-47 -32 -62 -46 -57 -51 8 -8 97 50 97 63 0 16 2 17 -40
-12z"/>
<path d="M1733 266 c-35 -22 -63 -47 -63 -54 0 -10 86 40 129 74 1 1 1 7 0 12
-2 5 -32 -9 -66 -32z"/>
<path d="M1333 269 c-60 -42 -54 -56 7 -18 28 17 50 35 50 40 0 15 -12 10 -57
-22z"/>
<path d="M1348 239 c-42 -27 -60 -49 -42 -49 12 0 94 61 94 70 0 13 1 14 -52
-21z"/>
</g>
</svg>
