<?xml version="1.0" standalone="no"?>
<!DOCTYPE svg PUBLIC "-//W3C//DTD SVG 20010904//EN"
 "http://www.w3.org/TR/2001/REC-SVG-20010904/DTD/svg10.dtd">
<svg version="1.0" xmlns="http://www.w3.org/2000/svg"
 width="300.000000pt" height="300.000000pt" viewBox="0 0 300.000000 300.000000"
 preserveAspectRatio="xMidYMid meet">
<metadata>
Created by potrace 1.10, written by Peter Selinger 2001-2011
</metadata>
<g transform="translate(0.000000,300.000000) scale(0.050000,-0.050000)"
fill="#000000" stroke="none">
<path d="M2760 5680 c-82 -82 -27 -211 83 -195 70 10 75 -26 17 -121 -43 -70
-46 -70 -154 11 -150 113 -508 146 -678 64 -129 -62 -290 -276 -173 -229 74
29 158 32 245 9 246 -64 335 -38 313 94 -12 79 -8 80 135 26 212 -79 218 -98
65 -194 -184 -115 -308 -297 -311 -456 l-2 -62 -120 9 c-114 8 -122 6 -180
-56 -71 -76 -77 -120 -15 -120 63 -1 84 -18 132 -114 78 -153 215 -202 227
-81 9 94 64 95 158 3 100 -98 98 -117 -17 -156 -171 -59 -277 -60 -515 -5
-121 28 -251 53 -290 57 l-70 6 6 110 c17 298 258 555 452 481 75 -29 83 -17
54 79 -37 126 -135 167 -266 111 -26 -11 -43 5 -76 68 -134 263 -560 188 -560
-99 0 -158 151 -247 229 -136 58 84 15 196 -76 196 -64 0 -12 86 72 118 234
89 367 -244 187 -466 l-42 -53 -84 42 c-72 36 -95 39 -152 20 -79 -26 -181
-121 -130 -121 84 0 215 -181 216 -300 0 -46 -8 -50 -95 -55 -52 -3 -127 -10
-167 -16 l-72 -12 9 148 c11 168 -28 240 -148 273 -62 18 -62 17 -73 -65 -12
-85 -17 -91 -194 -220 -160 -116 -157 -283 6 -283 92 0 93 4 -23 -118 -53 -57
-118 -141 -145 -187 -26 -47 -63 -85 -80 -85 -86 0 -190 -137 -199 -260 -9
-134 1 -179 58 -244 49 -56 59 -88 68 -216 14 -194 96 -439 218 -651 110 -192
126 -296 57 -359 -76 -69 -35 -305 59 -341 16 -6 33 -2 37 10 22 65 82 101
201 120 170 26 190 46 176 165 -13 112 -3 121 94 94 106 -29 101 -310 -7 -408
-50 -45 -50 -60 0 -110 54 -54 124 -50 186 11 l51 52 24 -44 c23 -45 17 -223
-12 -314 -15 -50 1 -55 80 -25 75 28 68 387 -14 742 -3 13 61 24 163 29 92 4
185 14 207 21 42 13 43 -25 5 -147 -31 -97 208 -140 304 -56 l56 50 75 -85 74
-84 69 80 68 80 -39 50 c-51 65 -177 255 -177 267 0 5 38 32 85 61 171 103
228 175 243 305 12 108 11 114 -17 77 -117 -152 -335 -333 -365 -303 -43 43
-15 364 38 446 30 46 60 107 67 135 8 29 18 52 24 52 22 0 200 -121 235 -160
48 -53 63 -50 75 12 11 56 -77 135 -223 199 l-72 33 -4 203 -5 203 65 30 c129
60 90 264 -52 268 -65 2 -77 11 -124 102 -29 55 -79 133 -111 174 -33 40 -59
76 -59 80 0 3 65 6 145 7 115 1 168 12 257 55 135 65 130 65 146 9 15 -55 51
-14 52 59 0 23 45 112 101 196 70 105 97 164 89 191 -19 58 -38 48 -76 -37
-48 -108 -170 -223 -195 -184 -120 188 -169 484 -101 616 37 72 212 288 242
300 17 6 100 -179 100 -223 0 -67 23 -93 62 -72 60 32 16 242 -71 338 -29 32
-28 39 6 83 121 156 138 354 35 423 -42 28 -132 15 -172 -25z m-1813 -1505
c20 -73 15 -85 -16 -44 -29 38 -29 38 -21 -6 6 -37 -1 -45 -41 -45 -59 0 -58
69 1 113 51 37 63 34 77 -18z m557 -452 c8 -34 -126 -84 -272 -101 -105 -13
-126 -23 -190 -95 l-72 -80 -80 58 c-44 32 -118 68 -165 81 -107 28 -107 33
19 166 125 132 359 254 566 294 l140 27 24 -162 c13 -89 26 -174 30 -188z
m372 274 c142 -68 259 -197 337 -373 65 -146 60 -158 -35 -77 -95 81 -219 144
-323 163 -88 17 -209 175 -229 298 l-12 76 68 -13 c37 -8 125 -41 194 -74z
m-114 -366 c8 5 27 -6 42 -26 14 -19 46 -37 69 -39 24 -3 104 -33 178 -66 74
-34 160 -64 192 -66 31 -2 57 -16 57 -30 0 -15 9 -21 20 -14 11 7 20 -2 20
-19 0 -17 -7 -31 -16 -31 -26 0 -12 -143 23 -225 47 -114 41 -315 -9 -315 -22
0 -45 -16 -53 -35 -15 -39 -19 -46 -106 -150 -66 -79 -65 -90 7 -52 42 23 42
22 8 -25 -34 -47 -41 -61 -66 -133 -23 -64 -18 -175 8 -203 21 -22 22 -31 2
-43 -16 -10 -8 -18 24 -22 43 -6 48 -17 48 -97 0 -56 11 -100 30 -115 26 -21
24 -23 -10 -11 -35 12 -37 9 -13 -19 27 -34 14 -84 -16 -65 -9 5 -22 -4 -28
-20 -15 -39 -53 -39 -53 0 0 17 -8 30 -17 30 -17 0 -63 88 -63 121 0 10 13 19
29 19 45 0 26 215 -22 250 -20 15 -30 33 -22 41 18 19 -61 89 -103 90 -18 1
-54 7 -82 13 -27 6 -68 9 -90 8 -67 -5 -217 -20 -270 -26 -27 -3 -50 -1 -50 5
0 6 -42 50 -94 98 -52 48 -90 94 -85 103 5 8 -16 30 -47 49 -72 42 -138 140
-154 229 -42 233 -48 321 -25 366 12 25 9 47 -9 69 -18 22 -19 34 -4 39 12 4
39 21 60 38 21 17 25 24 8 16 -26 -14 -26 -11 -3 18 16 19 45 34 65 34 21 0
38 9 38 20 0 11 25 20 56 20 30 0 74 13 98 30 23 16 56 25 72 19 16 -6 34 3
41 20 6 17 23 31 37 32 14 0 61 31 104 67 77 66 79 67 118 30 22 -20 47 -32
56 -27z m-1063 -144 c76 -63 122 -151 179 -337 110 -359 195 -541 305 -661
l80 -87 0 -186 c-1 -204 0 -203 -121 -128 -270 171 -385 520 -216 655 40 32
40 33 -42 75 -122 62 -176 55 -267 -36 -88 -89 -90 -88 -107 59 -7 60 -16 129
-21 154 -7 34 2 47 39 56 144 36 161 309 19 309 -34 0 -34 2 5 100 38 94 63
99 147 27z m-266 4 c-6 -16 -21 -65 -33 -110 -12 -44 -30 -81 -41 -81 -31 0
-22 127 12 176 35 49 80 60 62 15z m1492 -1316 c6 -69 17 -140 24 -158 15 -37
-193 -68 -359 -54 -88 8 -112 84 -80 252 l12 66 124 -12 c68 -6 151 -2 184 8
33 11 66 20 72 21 7 1 17 -54 23 -123z m-985 -129 c28 -29 37 -46 22 -37 -19
12 -24 10 -14 -6 10 -17 25 -17 53 -2 45 24 47 -10 4 -57 -14 -15 -25 -42 -25
-60 -1 -29 -3 -30 -20 -4 -16 24 -19 21 -20 -15 0 -50 -16 -55 -61 -19 -32 25
-37 51 -16 84 7 11 6 38 -2 60 -37 100 8 132 79 56z"/>
<path d="M1688 3601 c6 -27 1 -61 -11 -75 -33 -39 -4 -90 48 -82 53 7 78 96
26 96 -17 0 -32 -16 -33 -35 -1 -22 -5 -25 -11 -9 -6 14 -1 37 11 51 16 19 13
37 -10 65 -30 37 -31 36 -20 -11z"/>
<path d="M1536 3424 c-41 -41 -84 -101 -96 -134 l-23 -60 -28 65 c-39 94 -69
81 -67 -30 2 -72 5 -83 16 -45 10 37 18 43 30 23 32 -51 -31 -184 -112 -238
-42 -28 -76 -57 -76 -66 0 -26 -66 -41 -81 -17 -24 38 1 90 83 170 93 90 105
60 16 -41 -79 -91 -58 -92 32 -3 59 60 65 74 46 115 -30 65 -217 -106 -215
-197 3 -174 53 -280 119 -253 17 6 44 12 60 12 50 0 100 58 98 113 -2 39 -5
42 -12 14 -8 -30 -14 -32 -28 -10 -14 22 -17 21 -18 -8 0 -20 -11 -34 -25 -32
-14 2 -41 -3 -61 -12 -145 -62 -42 90 116 173 44 23 87 52 95 65 22 33 18 96
-5 82 -26 -16 -25 12 2 50 16 22 24 24 31 5 53 -130 147 -133 147 -6 0 101 35
107 44 8 9 -104 71 -142 141 -87 32 25 57 33 65 20 7 -11 30 -20 51 -20 28 0
39 -14 39 -49 0 -26 9 -71 19 -99 14 -37 11 -71 -11 -124 -36 -85 -25 -128 31
-128 52 0 53 -48 1 -100 -75 -75 -200 -33 -200 68 0 49 64 121 87 99 7 -8 13
9 13 37 0 28 14 62 30 76 17 14 30 39 30 56 0 26 -5 25 -37 -4 -36 -32 -39
-31 -51 12 l-13 46 -49 -56 c-54 -61 -65 -125 -25 -141 17 -7 15 -10 -5 -11
-58 -3 -83 34 -113 167 -20 86 -38 128 -50 116 -13 -13 -3 -82 26 -192 43
-163 43 -175 11 -208 -32 -32 -34 -31 -34 2 0 33 -3 33 -31 4 -37 -36 -61 -39
-79 -11 -31 50 -130 -31 -129 -105 0 -43 2 -43 42 11 31 41 48 50 67 34 51
-42 193 -1 217 63 32 84 70 71 77 -26 12 -162 174 -207 257 -71 56 92 52 170
-11 194 -35 13 -45 28 -36 52 11 31 14 31 38 -2 20 -27 42 -32 97 -22 69 13
71 12 71 -47 0 -34 9 -61 20 -61 11 0 20 27 20 60 0 41 15 69 51 93 91 59 152
247 81 247 -53 0 -148 -99 -168 -175 -16 -60 -20 -65 -22 -25 l-3 50 -37 -48
c-53 -69 -93 -42 -122 81 -14 59 -33 117 -44 130 -11 15 -10 28 3 36 41 26 21
159 -39 261 l-59 100 0 -90 c0 -49 9 -103 21 -120 16 -23 18 -19 8 20 l-13 50
41 -50 c49 -59 49 -62 16 -107 -34 -47 -91 -23 -106 44 -20 95 -74 206 -89
182 -8 -13 5 -67 27 -120 46 -108 26 -166 -54 -155 -36 5 -43 22 -48 111 -10
170 -104 99 -104 -79 0 -51 -4 -55 -40 -36 -74 40 -55 167 40 260 44 43 80 88
80 99 0 29 -1 28 -84 -55z m746 -500 c-20 -38 -82 -76 -82 -50 0 20 85 107 95
98 5 -5 -1 -26 -13 -48z"/>
<path d="M1930 3417 c8 -26 38 -98 67 -160 32 -65 43 -108 28 -102 -37 14 -31
-9 15 -55 53 -53 48 33 -7 137 -46 85 -31 99 46 44 108 -77 101 -163 -25 -296
-71 -74 -58 -83 36 -25 145 90 143 250 -6 381 -132 117 -172 136 -154 76z"/>
<path d="M2220 3180 c0 -11 8 -20 17 -20 9 0 27 -20 39 -45 20 -43 21 -43 23
-4 1 41 -33 89 -63 89 -9 0 -16 -9 -16 -20z"/>
<path d="M1755 3019 c-41 -22 -75 -49 -75 -61 0 -22 110 37 144 77 27 33 21
31 -69 -16z"/>
<path d="M1520 2922 c0 -28 -8 -39 -23 -30 -13 8 -19 3 -13 -14 17 -52 68 -43
65 11 -3 64 -29 93 -29 33z"/>
<path d="M1380 2882 c0 -10 -5 -33 -12 -50 -8 -21 -1 -32 20 -32 75 0 7 -86
-110 -139 l-88 -40 73 -1 c116 0 213 126 183 239 -10 40 -66 59 -66 23z"/>
<path d="M1526 2792 c6 -15 1 -37 -12 -50 -16 -16 -16 -22 1 -22 21 0 65 60
65 89 0 6 -14 11 -32 11 -19 0 -28 -11 -22 -28z"/>
<path d="M1860 2659 c0 -23 -9 -36 -20 -29 -32 20 -23 -22 10 -50 26 -21 30
-15 30 48 0 39 -4 72 -10 72 -5 0 -10 -19 -10 -41z"/>
<path d="M1631 2542 c-6 -10 -30 -13 -53 -7 -33 8 -41 3 -35 -27 5 -27 26 -39
71 -41 82 -4 126 41 69 72 -24 12 -45 14 -52 3z"/>
<path d="M3094 5695 c-90 -65 -78 -248 25 -390 68 -94 98 -94 291 -4 201 94
210 95 210 4 0 -133 61 -153 280 -92 98 27 138 30 215 12 114 -26 116 -25 76
52 -125 242 -627 284 -901 74 l-67 -51 -42 58 c-62 88 -55 132 23 132 49 0 71
13 95 54 59 106 -103 226 -205 151z"/>
<path d="M4360 5136 c-38 -26 -88 -81 -110 -122 -28 -52 -49 -70 -70 -61 -133
58 -252 -2 -274 -140 -12 -75 -10 -77 36 -60 185 66 350 -47 439 -300 63 -181
55 -293 -22 -293 -34 0 -162 -23 -285 -52 -166 -38 -252 -48 -331 -39 -105 12
-108 11 -96 -34 7 -25 13 -57 13 -72 0 -20 29 -25 117 -20 l117 7 -75 -100
c-84 -112 -141 -222 -179 -340 -39 -123 -134 -305 -243 -466 l-99 -146 59 -67
c32 -37 78 -119 101 -181 67 -178 102 -238 126 -214 15 15 11 46 -12 104 -119
299 -52 750 137 917 35 30 92 115 126 188 107 229 296 387 510 426 131 24 73
-152 -117 -351 l-112 -118 57 -13 c107 -24 124 -31 198 -81 40 -27 77 -47 81
-43 16 17 107 394 119 497 l13 112 87 -16 c273 -51 461 -145 624 -312 111
-114 126 -146 70 -146 -52 -1 -208 -76 -263 -126 -39 -36 -49 -39 -58 -14 -36
102 -142 165 -264 156 -144 -10 -156 -20 -102 -79 65 -70 86 -180 71 -375 -16
-202 3 -235 121 -216 39 6 70 7 70 2 0 -26 -121 -244 -148 -267 -34 -27 -46
-181 -14 -181 91 0 255 271 361 601 85 261 137 356 223 407 75 45 87 41 114
-34 33 -92 31 -104 -25 -130 -107 -49 -79 -239 42 -285 51 -20 51 -21 37 -174
-18 -199 -21 -202 -100 -111 -77 89 -197 105 -298 39 l-56 -37 56 -58 c135
-141 15 -465 -231 -621 -130 -83 -132 -81 -124 123 5 122 0 180 -15 180 -13 0
-22 -39 -22 -95 -1 -217 -95 -498 -244 -730 -171 -269 -28 -755 223 -755 162
0 256 184 152 298 -66 74 -211 47 -211 -40 0 -54 -56 -62 -83 -12 -33 61 -48
345 -19 363 12 7 46 -5 75 -28 70 -55 130 -52 188 10 46 49 47 53 12 73 -57
31 -93 142 -93 284 l0 129 72 24 c94 31 124 5 89 -80 -22 -52 -21 -68 7 -111
32 -49 49 -56 202 -81 107 -17 150 -43 150 -90 0 -53 44 -49 99 10 73 77 79
213 14 307 -71 102 -72 97 77 394 142 284 186 423 204 647 8 98 21 150 40 157
150 58 101 411 -71 499 -55 29 -110 82 -162 160 -43 64 -106 143 -139 176 -76
72 -77 86 -7 76 199 -28 175 207 -33 328 -118 69 -141 100 -141 193 -1 70 -5
76 -46 63 -165 -49 -233 -215 -163 -397 12 -31 -95 -31 -282 -1 -22 3 -47 7
-55 8 -20 1 0 89 47 197 28 65 55 94 117 121 l81 36 -47 44 c-90 85 -219 97
-298 28 -114 -101 -243 324 -130 430 100 94 226 98 296 9 l41 -51 -66 -22
c-126 -40 -91 -231 42 -231 166 0 185 274 27 389 -85 62 -258 66 -345 7z m785
-952 c-3 -13 7 -24 23 -24 30 0 87 -59 59 -62 -9 0 -33 -4 -52 -8 -19 -3 -35
1 -35 11 0 10 -16 13 -35 6 -30 -9 -31 -7 -5 13 23 17 24 26 5 33 -39 16 -30
71 10 62 19 -4 33 -18 30 -31z m514 -717 c43 -54 57 -176 19 -163 -25 8 -99
216 -76 216 8 0 34 -24 57 -53z m-677 -144 c13 21 22 21 41 2 18 -18 16 -27
-11 -37 -28 -11 -30 -17 -9 -30 22 -14 21 -18 -3 -18 -27 -1 -27 -3 0 -20 20
-13 22 -19 5 -20 -14 0 -25 -13 -25 -30 0 -34 -31 -40 -50 -10 -7 11 -4 20 6
20 29 0 17 87 -16 116 -16 15 -19 21 -5 14 14 -7 26 -1 27 14 1 20 4 20 12 -1
9 -23 14 -23 28 0z m193 -1268 c-3 -25 -13 -56 -22 -70 -10 -17 -5 -21 18 -12
29 11 31 7 9 -32 -16 -30 -16 -41 -2 -32 14 8 22 -4 22 -33 -1 -33 -5 -39 -18
-19 -12 19 -21 21 -31 5 -20 -33 6 -62 45 -48 26 9 29 6 11 -13 -17 -18 -33
-19 -62 -4 -22 12 -45 16 -51 10 -7 -7 -8 11 -3 39 5 28 -1 58 -14 66 -14 8
-18 5 -10 -8 8 -11 6 -26 -4 -32 -10 -7 -23 11 -28 38 -5 28 -1 50 9 50 10 0
13 9 6 19 -17 28 61 101 126 119 3 1 3 -18 -1 -43z"/>
<path d="M3457 5065 c85 -171 94 -473 17 -628 l-48 -97 60 -30 c54 -27 64 -27
96 2 55 49 107 28 114 -47 12 -124 118 -85 214 79 52 88 73 107 126 112 74 8
75 9 30 85 -43 73 -121 105 -233 96 l-89 -7 -13 79 c-20 127 -81 242 -179 340
-111 111 -146 117 -95 16z"/>
<path d="M3198 4988 c-64 -142 -146 -248 -192 -248 -52 0 -9 -170 65 -258 l50
-59 -57 -67 c-216 -248 -299 -540 -236 -835 52 -248 130 -249 320 -4 349 449
427 351 92 -117 -355 -498 -507 -973 -441 -1379 l25 -157 -83 -122 c-284 -418
-708 -699 -1190 -788 -193 -36 -171 -62 69 -81 715 -59 1092 116 1287 597 l44
107 95 -107 c290 -329 835 -339 1171 -22 665 628 492 2144 -229 2010 -286 -54
-449 -537 -296 -878 45 -101 37 -195 -23 -261 -93 -103 -220 -8 -310 231 -126
333 -145 314 -406 -390 l-48 -130 -15 77 c-40 205 80 524 353 936 309 467 378
770 247 1084 -43 102 -41 103 -299 -185 -257 -286 -291 -312 -291 -221 0 83
50 173 230 419 233 318 259 376 260 580 0 339 -98 476 -192 268z m968 -1836
c628 -189 412 -1283 -303 -1536 -245 -87 -724 1 -812 149 -27 46 148 585 190
585 16 0 69 -79 119 -178 164 -327 247 -329 403 -12 103 209 186 297 332 353
l90 34 -12 102 c-7 55 -13 134 -13 174 l0 73 -100 -38 c-252 -96 -420 -8 -295
154 119 155 227 193 401 140z"/>
<path d="M3935 3012 c-82 -62 11 -72 135 -13 l80 38 -90 1 c-49 0 -106 -11
-125 -26z"/>
<path d="M4282 2890 c0 -33 8 -127 17 -210 22 -182 4 -219 -134 -280 -137 -61
-199 -128 -287 -313 -166 -347 -453 -389 -579 -84 -33 80 -44 73 -83 -58 -49
-168 53 -231 384 -234 550 -4 1003 715 730 1159 l-49 80 1 -60z"/>
<path d="M2785 4759 c-65 -26 -61 -114 7 -140 70 -26 81 -15 72 80 -9 87 -10
88 -79 60z"/>
<path d="M2718 3246 c-27 -71 -5 -191 44 -244 55 -58 62 -55 117 63 27 58 52
112 57 120 4 8 -12 15 -35 15 -24 0 -65 23 -93 50 -62 62 -64 62 -90 -4z"/>
<path d="M1989 1390 c-47 -163 -37 -180 68 -118 84 51 85 53 45 81 -27 18 -42
51 -42 88 0 94 -36 68 -71 -51z"/>
<path d="M2887 1160 c-34 -49 -81 -107 -105 -128 -44 -40 -27 -92 30 -92 38 0
35 -34 -12 -135 -62 -138 -100 -135 -200 11 l-30 44 -114 -43 -115 -42 41 -58
c23 -32 64 -73 91 -91 67 -44 44 -57 -141 -84 -186 -27 -181 -29 -141 66 56
136 44 143 -246 135 -297 -8 -285 -3 -218 -91 161 -211 635 -295 899 -159 75
39 297 -60 351 -155 35 -61 63 -75 63 -31 0 38 76 101 192 160 l103 51 107
-42 c222 -86 610 -40 785 93 197 150 204 454 13 551 -96 49 -118 42 -72 -23
76 -109 7 -214 -176 -267 -173 -51 -211 -117 -141 -251 35 -68 37 -68 -149
-38 -200 33 -201 34 -128 95 68 57 166 226 166 285 0 70 24 99 83 99 82 0 186
47 224 102 44 63 37 64 -98 15 -86 -30 -171 -43 -303 -45 l-185 -2 12 -73 c20
-126 -91 -337 -162 -310 -87 33 -137 213 -67 243 63 27 74 109 16 124 -30 8
-40 23 -34 48 7 26 -10 48 -59 77 -87 52 -83 53 -103 -24 -24 -93 -72 -94 -95
-1 l-19 76 -63 -90z m179 -300 c9 -38 43 -107 74 -153 67 -100 58 -107 -127
-107 -171 1 -194 19 -126 101 30 35 65 103 78 152 28 106 74 110 101 7z"/>
<path d="M1161 1116 c-82 -87 -37 -253 80 -293 l58 -21 -12 86 c-10 76 -6 90
44 129 49 39 53 49 33 93 -31 67 -144 70 -203 6z"/>
<path d="M2319 173 c-7 -7 -445 -30 -780 -41 -31 -1 -52 -14 -54 -33 -2 -38
2893 -49 2920 -10 9 13 15 10 15 -9 1 -27 3 -27 20 0 18 26 22 26 39 1 10 -17
26 -23 35 -14 26 26 -58 63 -154 67 -49 2 -135 8 -190 14 -129 13 -1840 36
-1851 25z"/>
</g>
</svg>
