<?xml version="1.0" encoding="utf-8"?>
<svg viewBox="88.642 0.408 94.827 86.893" xmlns="http://www.w3.org/2000/svg">
  <path d="M 158.6 15 C 157.6 16 155.8 17 154.6 17.2 C 153 17.4 152.5 18.2 152.5 20.5 C 152.5 22.8 151.3 24.7 147.4 28.5 C 143.1 32.6 142 34.4 141.1 38.9 C 140.5 41.9 140.2 44.5 140.4 44.8 C 140.7 45 142.6 43.8 144.7 42.1 C 148.5 38.9 150 38.3 150 39.9 C 150 40.4 147.7 42.3 144.9 44.1 C 138.6 48.1 136.7 51 136 57.4 C 135.6 61.7 135.2 62.5 133.5 62.5 C 131.9 62.5 131.2 61.4 130.1 56.7 C 129.4 53.6 128.4 51 127.9 51 C 127.5 51 126.6 52.9 125.9 55.2 C 125.3 57.6 124 61.1 123 63 C 120.9 67.1 113.7 74.1 109 76.5 C 107.3 77.4 106.1 78.4 106.3 78.7 C 107.1 79.4 115.9 76.4 119.8 74 C 123.3 71.9 126.9 65.4 127 61 C 127.1 58.9 127.4 59.1 128.6 62.4 C 130.1 66.6 131.7 69 133 69 C 133.5 69 136.3 66.8 139.3 64 C 143 60.6 144.9 58.1 145.2 56 C 145.7 52.4 145.6 52.4 142.3 55 C 140.9 56.1 139.3 57 138.9 57 C 136.7 57 138.5 54.6 144 50.4 C 151 44.9 152.7 42.5 153.6 37.1 C 154.1 33.7 154 33 152.6 33 C 151.7 33 149.8 33.7 148.4 34.6 C 147.1 35.5 145.7 36 145.4 35.7 C 145.1 35.4 148 32.7 151.8 29.6 C 158.5 24.2 160.1 21.9 161.4 15.7 C 162.1 12.6 161.3 12.3 158.6 15 Z" fill="#000000" stroke="none"/>
  <path d="M 142.157 18.652 C 140.557 20.252 140.657 22.152 142.257 22.852 C 143.457 23.352 141.857 25.152 136.157 29.352 C 134.657 30.452 133.957 31.452 134.657 31.452 C 135.257 31.452 137.857 29.852 140.357 27.952 C 142.957 26.052 145.457 24.452 146.057 24.452 C 146.657 24.452 146.857 23.752 146.557 22.852 C 146.257 21.952 145.957 20.452 145.957 19.352 C 145.957 17.252 143.957 16.852 142.157 18.652 Z" fill="#000000" stroke="none"/>
  <path d="M 121.535 27.121 C 113.235 32.721 113.435 34.921 121.735 29.721 C 125.335 27.421 128.235 25.021 128.235 24.221 C 128.235 22.521 128.835 22.221 121.535 27.121 Z" fill="#000000" stroke="none"/>
  <path d="M 134.314 41.685 C 134.314 43.185 134.014 43.285 132.814 42.285 C 131.614 41.285 131.314 41.285 131.314 42.685 C 131.314 44.585 129.314 44.885 129.314 42.985 C 129.314 42.385 128.814 42.585 128.214 43.585 C 126.514 46.485 128.514 47.885 132.214 46.385 C 135.514 44.985 136.914 42.485 135.314 40.885 C 134.614 40.185 134.314 40.485 134.314 41.685 Z" fill="#000000" stroke="none"/>
  <path d="M 162.715 44.103 C 161.115 45.703 161.215 47.603 162.815 48.303 C 164.015 48.803 162.415 50.603 156.715 54.803 C 155.215 55.903 154.515 56.903 155.215 56.903 C 155.815 56.903 158.415 55.303 160.915 53.403 C 163.515 51.503 166.015 49.903 166.615 49.903 C 167.215 49.903 167.415 49.203 167.115 48.303 C 166.815 47.403 166.515 45.903 166.515 44.803 C 166.515 42.703 164.515 42.303 162.715 44.103 Z" fill="#000000" stroke="none"/>
  <path d="M 115.483 41.948 C 113.883 43.548 113.983 45.448 115.583 46.148 C 116.783 46.648 115.183 48.448 109.483 52.648 C 107.983 53.748 107.283 54.748 107.983 54.748 C 108.583 54.748 111.183 53.148 113.683 51.248 C 116.283 49.348 118.783 47.748 119.383 47.748 C 119.983 47.748 120.183 47.048 119.883 46.148 C 119.583 45.248 119.283 43.748 119.283 42.648 C 119.283 40.548 117.283 40.148 115.483 41.948 Z" fill="#000000" stroke="none" transform="matrix(-1, 0, 0, -1, 227.73111, 95.554588)"/>
</svg>